<svg width="12" height="14" viewBox="0 0 12 14" fill="none" xmlns="http://www.w3.org/2000/svg">
<path fill-rule="evenodd" clip-rule="evenodd" d="M8.71343 0.808716C8.95187 0.808716 9.14538 1.00223 9.14538 1.24067L9.14564 1.72895C9.98657 1.7866 10.685 2.07465 11.1793 2.56998C11.7189 3.11193 12.0029 3.89117 12 4.82591V10.0802C12 11.9992 10.7813 13.1913 8.82026 13.1913H3.94902C1.98796 13.1913 0.769287 11.9825 0.769287 10.0364V4.82476C0.769287 3.01471 1.85611 1.85285 3.62862 1.72915L3.62897 1.24067C3.62897 1.00223 3.82248 0.808716 4.06092 0.808716C4.29936 0.808716 4.49287 1.00223 4.49287 1.24067L4.4927 1.71812H8.28119L8.28148 1.24067C8.28148 1.00223 8.47499 0.808716 8.71343 0.808716ZM11.1361 5.93683H1.63319V10.0364C1.63319 11.5142 2.45562 12.3274 3.94902 12.3274H8.82026C10.3137 12.3274 11.1361 11.5292 11.1361 10.0802L11.1361 5.93683ZM8.94824 9.56078C9.18667 9.56078 9.38019 9.75429 9.38019 9.99273C9.38019 10.2312 9.18667 10.4247 8.94824 10.4247C8.7098 10.4247 8.51398 10.2312 8.51398 9.99273C8.51398 9.75429 8.70462 9.56078 8.94305 9.56078H8.94824ZM6.39253 9.56078C6.63097 9.56078 6.82448 9.75429 6.82448 9.99273C6.82448 10.2312 6.63097 10.4247 6.39253 10.4247C6.15409 10.4247 5.95828 10.2312 5.95828 9.99273C5.95828 9.75429 6.14891 9.56078 6.38735 9.56078H6.39253ZM3.83147 9.56078C4.06991 9.56078 4.26342 9.75429 4.26342 9.99273C4.26342 10.2312 4.06991 10.4247 3.83147 10.4247C3.59303 10.4247 3.39664 10.2312 3.39664 9.99273C3.39664 9.75429 3.58785 9.56078 3.82629 9.56078H3.83147ZM8.94824 7.3223C9.18667 7.3223 9.38019 7.51581 9.38019 7.75425C9.38019 7.99268 9.18667 8.1862 8.94824 8.1862C8.7098 8.1862 8.51398 7.99268 8.51398 7.75425C8.51398 7.51581 8.70462 7.3223 8.94305 7.3223H8.94824ZM6.39253 7.3223C6.63097 7.3223 6.82448 7.51581 6.82448 7.75425C6.82448 7.99268 6.63097 8.1862 6.39253 8.1862C6.15409 8.1862 5.95828 7.99268 5.95828 7.75425C5.95828 7.51581 6.14891 7.3223 6.38735 7.3223H6.39253ZM3.83147 7.3223C4.06991 7.3223 4.26342 7.51581 4.26342 7.75425C4.26342 7.99268 4.06991 8.1862 3.83147 8.1862C3.59303 8.1862 3.39664 7.99268 3.39664 7.75425C3.39664 7.51581 3.58785 7.3223 3.82629 7.3223H3.83147ZM8.28119 2.58202H4.4927L4.49287 3.13606C4.49287 3.3745 4.29936 3.56801 4.06092 3.56801C3.82248 3.56801 3.62897 3.3745 3.62897 3.13606L3.62866 2.59509C2.33844 2.70348 1.63319 3.48557 1.63319 4.82476V5.07293H11.1361L11.1361 4.82476C11.1384 4.11348 10.9472 3.56059 10.5676 3.18047C10.2345 2.84632 9.74744 2.64675 9.14587 2.59537L9.14538 3.13606C9.14538 3.3745 8.95187 3.56801 8.71343 3.56801C8.47499 3.56801 8.28148 3.3745 8.28148 3.13606L8.28119 2.58202Z" fill="white"/>
</svg>
