<svg width="756" height="200" viewBox="0 0 756 200" fill="none" xmlns="http://www.w3.org/2000/svg">
<path d="M13.6006 0.580566L13.6006 198.581" stroke="#E0E0E0" stroke-width="0.5" stroke-linecap="square"/>
<path d="M472.747 0.580566L472.747 198.581" stroke="#E0E0E0" stroke-width="0.5" stroke-linecap="square"/>
<path d="M538.048 0.580566L538.048 198.581" stroke="#E0E0E0" stroke-width="0.5" stroke-linecap="square"/>
<path d="M603.369 0.580566L603.369 198.581" stroke="#E0E0E0" stroke-width="0.5" stroke-linecap="square"/>
<path d="M672.751 0.580566L672.751 198.581" stroke="#E0E0E0" stroke-width="0.5" stroke-linecap="square"/>
<path d="M742.134 0.580566L742.134 198.581" stroke="#E0E0E0" stroke-width="0.5" stroke-linecap="square"/>
<path d="M341.125 0.580566L341.125 198.581" stroke="#E0E0E0" stroke-width="0.5" stroke-linecap="square"/>
<path d="M145.223 0.580566L145.223 198.581" stroke="#E0E0E0" stroke-width="0.5" stroke-linecap="square"/>
<path d="M210.523 0.580566L210.523 198.581" stroke="#E0E0E0" stroke-width="0.5" stroke-linecap="square"/>
<path d="M275.824 0.580566L275.824 198.581" stroke="#E0E0E0" stroke-width="0.5" stroke-linecap="square"/>
<path d="M407.446 0.580566L407.446 198.581" stroke="#E0E0E0" stroke-width="0.5" stroke-linecap="square"/>
<path d="M78.9014 0.580566L78.9014 198.581" stroke="#E0E0E0" stroke-width="0.5" stroke-linecap="square"/>
<rect x="0.335938" y="102.581" width="26.5285" height="97" fill="url(#paint0_linear_261_236)" fill-opacity="0.04"/>
<rect x="65.6372" y="102.581" width="26.5285" height="97" fill="url(#paint1_linear_261_236)" fill-opacity="0.04"/>
<rect x="327.861" y="101.581" width="26.5285" height="97" fill="url(#paint2_linear_261_236)" fill-opacity="0.04"/>
<rect x="393.162" y="102.581" width="27.5488" height="97" fill="url(#paint3_linear_261_236)" fill-opacity="0.04"/>
<rect x="459.483" y="102.581" width="26.5285" height="97" fill="url(#paint4_linear_261_236)" fill-opacity="0.04"/>
<rect x="130.938" y="102.581" width="27.5488" height="97" fill="url(#paint5_linear_261_236)" fill-opacity="0.04"/>
<rect x="197.259" y="102.581" width="26.5285" height="97" fill="url(#paint6_linear_261_236)" fill-opacity="0.04"/>
<rect x="524.784" y="102.581" width="26.5285" height="97" fill="url(#paint7_linear_261_236)" fill-opacity="0.04"/>
<rect x="590.104" y="102.581" width="26.5285" height="97" fill="url(#paint8_linear_261_236)" fill-opacity="0.04"/>
<rect x="659.487" y="102.581" width="26.5285" height="97" fill="url(#paint9_linear_261_236)" fill-opacity="0.04"/>
<rect x="728.87" y="102.581" width="26.5285" height="97" fill="url(#paint10_linear_261_236)" fill-opacity="0.04"/>
<rect x="262.56" y="59.5806" width="26.5285" height="140" fill="url(#paint11_linear_261_236)" fill-opacity="0.04"/>
<path d="M13.1494 150.002L78.3952 113.744L144.986 134.84L210.232 45.8428L275.478 87.3747L341.396 27.384L407.315 184.942L472.803 134.84L537.911 106.226L603.426 45.8428L672.514 111.564L742.197 96.0773" stroke="url(#paint12_linear_261_236)" stroke-width="2"/>
<ellipse cx="13.6007" cy="150.081" rx="5.10163" ry="5" fill="url(#paint13_linear_261_236)"/>
<ellipse cx="13.6011" cy="150.081" rx="2.70123" ry="2.64706" fill="white"/>
<ellipse cx="78.9014" cy="114.22" rx="5.10163" ry="5" fill="url(#paint14_linear_261_236)"/>
<ellipse cx="78.9019" cy="114.22" rx="2.70123" ry="2.64706" fill="white"/>
<ellipse cx="145.223" cy="134.581" rx="5.10163" ry="5" fill="url(#paint15_linear_261_236)"/>
<ellipse cx="145.223" cy="134.581" rx="2.70123" ry="2.64706" fill="white"/>
<ellipse cx="210.523" cy="45.8081" rx="5.10163" ry="5" fill="url(#paint16_linear_261_236)"/>
<ellipse cx="210.524" cy="45.8082" rx="2.70123" ry="2.64706" fill="white"/>
<ellipse cx="275.824" cy="87.1107" rx="5.10163" ry="5" fill="url(#paint17_linear_261_236)"/>
<ellipse cx="275.825" cy="87.1108" rx="2.70123" ry="2.64706" fill="white"/>
<ellipse cx="408.977" cy="184.942" rx="5.10163" ry="5" fill="url(#paint18_linear_261_236)"/>
<ellipse cx="408.977" cy="184.942" rx="2.70123" ry="2.64706" fill="white"/>
<ellipse cx="472.747" cy="134.581" rx="5.10163" ry="5" fill="url(#paint19_linear_261_236)"/>
<ellipse cx="472.748" cy="134.581" rx="2.70123" ry="2.64706" fill="white"/>
<ellipse cx="603.369" cy="45.6528" rx="5.10163" ry="5" fill="url(#paint20_linear_261_236)"/>
<ellipse cx="603.37" cy="45.6529" rx="2.70123" ry="2.64706" fill="white"/>
<ellipse cx="672.752" cy="111.163" rx="5.10163" ry="5" fill="url(#paint21_linear_261_236)"/>
<ellipse cx="672.752" cy="111.163" rx="2.70123" ry="2.64706" fill="white"/>
<ellipse cx="742.134" cy="96.5806" rx="5.10163" ry="5" fill="url(#paint22_linear_261_236)"/>
<ellipse cx="742.134" cy="96.5807" rx="2.70123" ry="2.64706" fill="white"/>
<ellipse cx="538.048" cy="106.581" rx="5.10163" ry="5" fill="url(#paint23_linear_261_236)"/>
<ellipse cx="538.048" cy="106.581" rx="2.70123" ry="2.64706" fill="white"/>
<defs>
<linearGradient id="paint0_linear_261_236" x1="13.6002" y1="206.167" x2="12.3568" y2="93.0013" gradientUnits="userSpaceOnUse">
<stop stop-color="#D8D8D8"/>
<stop offset="1" stop-color="#C4C4C4" stop-opacity="0"/>
</linearGradient>
<linearGradient id="paint1_linear_261_236" x1="78.9014" y1="206.167" x2="77.6581" y2="93.0013" gradientUnits="userSpaceOnUse">
<stop stop-color="#D8D8D8"/>
<stop offset="1" stop-color="#C4C4C4" stop-opacity="0"/>
</linearGradient>
<linearGradient id="paint2_linear_261_236" x1="341.125" y1="205.167" x2="339.882" y2="92.0013" gradientUnits="userSpaceOnUse">
<stop stop-color="#D8D8D8"/>
<stop offset="1" stop-color="#C4C4C4" stop-opacity="0"/>
</linearGradient>
<linearGradient id="paint3_linear_261_236" x1="406.936" y1="206.167" x2="405.739" y2="93.0003" gradientUnits="userSpaceOnUse">
<stop stop-color="#D8D8D8"/>
<stop offset="1" stop-color="#C4C4C4" stop-opacity="0"/>
</linearGradient>
<linearGradient id="paint4_linear_261_236" x1="472.747" y1="206.167" x2="471.504" y2="93.0013" gradientUnits="userSpaceOnUse">
<stop stop-color="#D8D8D8"/>
<stop offset="1" stop-color="#C4C4C4" stop-opacity="0"/>
</linearGradient>
<linearGradient id="paint5_linear_261_236" x1="144.712" y1="206.167" x2="143.515" y2="93.0003" gradientUnits="userSpaceOnUse">
<stop stop-color="#D8D8D8"/>
<stop offset="1" stop-color="#C4C4C4" stop-opacity="0"/>
</linearGradient>
<linearGradient id="paint6_linear_261_236" x1="210.524" y1="206.167" x2="209.28" y2="93.0013" gradientUnits="userSpaceOnUse">
<stop stop-color="#D8D8D8"/>
<stop offset="1" stop-color="#C4C4C4" stop-opacity="0"/>
</linearGradient>
<linearGradient id="paint7_linear_261_236" x1="538.048" y1="206.167" x2="536.805" y2="93.0013" gradientUnits="userSpaceOnUse">
<stop stop-color="#D8D8D8"/>
<stop offset="1" stop-color="#C4C4C4" stop-opacity="0"/>
</linearGradient>
<linearGradient id="paint8_linear_261_236" x1="603.369" y1="206.167" x2="602.125" y2="93.0013" gradientUnits="userSpaceOnUse">
<stop stop-color="#D8D8D8"/>
<stop offset="1" stop-color="#C4C4C4" stop-opacity="0"/>
</linearGradient>
<linearGradient id="paint9_linear_261_236" x1="672.752" y1="206.167" x2="671.508" y2="93.0013" gradientUnits="userSpaceOnUse">
<stop stop-color="#D8D8D8"/>
<stop offset="1" stop-color="#C4C4C4" stop-opacity="0"/>
</linearGradient>
<linearGradient id="paint10_linear_261_236" x1="742.134" y1="206.167" x2="740.891" y2="93.0013" gradientUnits="userSpaceOnUse">
<stop stop-color="#D8D8D8"/>
<stop offset="1" stop-color="#C4C4C4" stop-opacity="0"/>
</linearGradient>
<linearGradient id="paint11_linear_261_236" x1="275.824" y1="59.5806" x2="275.824" y2="199.581" gradientUnits="userSpaceOnUse">
<stop stop-color="#D8D8D8" stop-opacity="0"/>
<stop offset="1" stop-color="#D8D8D8"/>
</linearGradient>
<linearGradient id="paint12_linear_261_236" x1="-51.8071" y1="21.9298" x2="296.041" y2="505.726" gradientUnits="userSpaceOnUse">
<stop stop-color="#510091"/>
<stop offset="1" stop-color="#1D4B79"/>
</linearGradient>
<linearGradient id="paint13_linear_261_236" x1="7.58994" y1="144.734" x2="20.6472" y2="148.739" gradientUnits="userSpaceOnUse">
<stop stop-color="#510091"/>
<stop offset="1" stop-color="#1D4B79"/>
</linearGradient>
<linearGradient id="paint14_linear_261_236" x1="72.8907" y1="108.874" x2="85.948" y2="112.878" gradientUnits="userSpaceOnUse">
<stop stop-color="#510091"/>
<stop offset="1" stop-color="#1D4B79"/>
</linearGradient>
<linearGradient id="paint15_linear_261_236" x1="139.212" y1="129.234" x2="152.269" y2="133.239" gradientUnits="userSpaceOnUse">
<stop stop-color="#510091"/>
<stop offset="1" stop-color="#1D4B79"/>
</linearGradient>
<linearGradient id="paint16_linear_261_236" x1="204.513" y1="40.4619" x2="217.57" y2="44.4664" gradientUnits="userSpaceOnUse">
<stop stop-color="#510091"/>
<stop offset="1" stop-color="#1D4B79"/>
</linearGradient>
<linearGradient id="paint17_linear_261_236" x1="269.814" y1="81.7645" x2="282.871" y2="85.769" gradientUnits="userSpaceOnUse">
<stop stop-color="#510091"/>
<stop offset="1" stop-color="#1D4B79"/>
</linearGradient>
<linearGradient id="paint18_linear_261_236" x1="402.966" y1="179.596" x2="416.023" y2="183.6" gradientUnits="userSpaceOnUse">
<stop stop-color="#510091"/>
<stop offset="1" stop-color="#1D4B79"/>
</linearGradient>
<linearGradient id="paint19_linear_261_236" x1="466.736" y1="129.234" x2="479.794" y2="133.239" gradientUnits="userSpaceOnUse">
<stop stop-color="#510091"/>
<stop offset="1" stop-color="#1D4B79"/>
</linearGradient>
<linearGradient id="paint20_linear_261_236" x1="597.358" y1="40.3067" x2="610.416" y2="44.3112" gradientUnits="userSpaceOnUse">
<stop stop-color="#510091"/>
<stop offset="1" stop-color="#1D4B79"/>
</linearGradient>
<linearGradient id="paint21_linear_261_236" x1="666.741" y1="105.817" x2="679.798" y2="109.821" gradientUnits="userSpaceOnUse">
<stop stop-color="#510091"/>
<stop offset="1" stop-color="#1D4B79"/>
</linearGradient>
<linearGradient id="paint22_linear_261_236" x1="736.123" y1="91.2344" x2="749.18" y2="95.2389" gradientUnits="userSpaceOnUse">
<stop stop-color="#510091"/>
<stop offset="1" stop-color="#1D4B79"/>
</linearGradient>
<linearGradient id="paint23_linear_261_236" x1="532.037" y1="101.234" x2="545.094" y2="105.239" gradientUnits="userSpaceOnUse">
<stop stop-color="#510091"/>
<stop offset="1" stop-color="#1D4B79"/>
</linearGradient>
</defs>
</svg>
