<svg width="90" height="29" viewBox="0 0 90 29" fill="none" xmlns="http://www.w3.org/2000/svg">
<rect opacity="0.1" x="0.00744629" y="0.5" width="89" height="28" rx="5" fill="#30F50F"/>
<path d="M20.1733 19.5V9.7H23.5473C24.322 9.7 24.9567 9.83067 25.4513 10.092C25.9553 10.3533 26.3287 10.708 26.5713 11.156C26.814 11.5947 26.9353 12.0847 26.9353 12.626C26.9353 13.2327 26.772 13.7833 26.4453 14.278C26.128 14.7727 25.6287 15.1273 24.9473 15.342L27.0333 19.5H25.3113L23.4073 15.552H21.6573V19.5H20.1733ZM21.6573 14.432H23.4633C24.1353 14.432 24.6253 14.2687 24.9333 13.942C25.2507 13.6153 25.4093 13.1907 25.4093 12.668C25.4093 12.1453 25.2553 11.73 24.9473 11.422C24.6393 11.1047 24.14 10.946 23.4493 10.946H21.6573V14.432ZM31.4591 19.668C30.7777 19.668 30.1711 19.5187 29.6391 19.22C29.1164 18.912 28.7057 18.4873 28.4071 17.946C28.1084 17.4047 27.9591 16.7747 27.9591 16.056C27.9591 15.328 28.1037 14.6887 28.3931 14.138C28.6917 13.5873 29.1024 13.158 29.6251 12.85C30.1571 12.542 30.7731 12.388 31.4731 12.388C32.1544 12.388 32.7471 12.542 33.2511 12.85C33.7551 13.1487 34.1471 13.55 34.4271 14.054C34.7071 14.558 34.8471 15.1133 34.8471 15.72C34.8471 15.8133 34.8424 15.916 34.8331 16.028C34.8331 16.1307 34.8284 16.2473 34.8191 16.378H29.4151C29.4617 17.05 29.6811 17.5633 30.0731 17.918C30.4744 18.2633 30.9364 18.436 31.4591 18.436C31.8791 18.436 32.2291 18.3427 32.5091 18.156C32.7984 17.96 33.0131 17.6987 33.1531 17.372H34.6371C34.4504 18.0253 34.0771 18.5713 33.5171 19.01C32.9664 19.4487 32.2804 19.668 31.4591 19.668ZM31.4591 13.606C30.9644 13.606 30.5257 13.7553 30.1431 14.054C29.7604 14.3433 29.5271 14.782 29.4431 15.37H33.3631C33.3351 14.8287 33.1437 14.3993 32.7891 14.082C32.4344 13.7647 31.9911 13.606 31.4591 13.606ZM39.6769 19.668C38.9955 19.668 38.3842 19.514 37.8429 19.206C37.3109 18.898 36.8909 18.4733 36.5829 17.932C36.2842 17.3813 36.1349 16.7467 36.1349 16.028C36.1349 15.3093 36.2842 14.6793 36.5829 14.138C36.8909 13.5873 37.3109 13.158 37.8429 12.85C38.3842 12.542 38.9955 12.388 39.6769 12.388C40.5355 12.388 41.2542 12.612 41.8329 13.06C42.4209 13.508 42.7989 14.1147 42.9669 14.88H41.4129C41.3195 14.4973 41.1142 14.1987 40.7969 13.984C40.4795 13.7693 40.1062 13.662 39.6769 13.662C39.3129 13.662 38.9769 13.7553 38.6689 13.942C38.3609 14.1193 38.1135 14.3853 37.9269 14.74C37.7402 15.0853 37.6469 15.5147 37.6469 16.028C37.6469 16.5413 37.7402 16.9753 37.9269 17.33C38.1135 17.6753 38.3609 17.9413 38.6689 18.128C38.9769 18.3147 39.3129 18.408 39.6769 18.408C40.1062 18.408 40.4795 18.3007 40.7969 18.086C41.1142 17.8713 41.3195 17.568 41.4129 17.176H42.9669C42.8082 17.9227 42.4349 18.5247 41.8469 18.982C41.2589 19.4393 40.5355 19.668 39.6769 19.668ZM47.8243 19.668C47.143 19.668 46.5363 19.5187 46.0043 19.22C45.4816 18.912 45.071 18.4873 44.7723 17.946C44.4736 17.4047 44.3243 16.7747 44.3243 16.056C44.3243 15.328 44.469 14.6887 44.7583 14.138C45.057 13.5873 45.4676 13.158 45.9903 12.85C46.5223 12.542 47.1383 12.388 47.8383 12.388C48.5196 12.388 49.1123 12.542 49.6163 12.85C50.1203 13.1487 50.5123 13.55 50.7923 14.054C51.0723 14.558 51.2123 15.1133 51.2123 15.72C51.2123 15.8133 51.2076 15.916 51.1983 16.028C51.1983 16.1307 51.1936 16.2473 51.1843 16.378H45.7803C45.827 17.05 46.0463 17.5633 46.4383 17.918C46.8396 18.2633 47.3016 18.436 47.8243 18.436C48.2443 18.436 48.5943 18.3427 48.8743 18.156C49.1636 17.96 49.3783 17.6987 49.5183 17.372H51.0023C50.8156 18.0253 50.4423 18.5713 49.8823 19.01C49.3316 19.4487 48.6456 19.668 47.8243 19.668ZM47.8243 13.606C47.3296 13.606 46.891 13.7553 46.5083 14.054C46.1256 14.3433 45.8923 14.782 45.8083 15.37H49.7283C49.7003 14.8287 49.509 14.3993 49.1543 14.082C48.7996 13.7647 48.3563 13.606 47.8243 13.606ZM53.5921 11.24C53.3121 11.24 53.0788 11.156 52.8921 10.988C52.7148 10.8107 52.6261 10.5913 52.6261 10.33C52.6261 10.0687 52.7148 9.854 52.8921 9.686C53.0788 9.50867 53.3121 9.42 53.5921 9.42C53.8721 9.42 54.1008 9.50867 54.2781 9.686C54.4648 9.854 54.5581 10.0687 54.5581 10.33C54.5581 10.5913 54.4648 10.8107 54.2781 10.988C54.1008 11.156 53.8721 11.24 53.5921 11.24ZM52.8501 19.5V12.556H54.3341V19.5H52.8501ZM59.2051 19.5C58.5238 19.5 57.9824 19.3367 57.5811 19.01C57.1798 18.674 56.9791 18.0813 56.9791 17.232V13.802H55.7891V12.556H56.9791L57.1611 10.792H58.4631V12.556H60.4231V13.802H58.4631V17.232C58.4631 17.6147 58.5424 17.8807 58.7011 18.03C58.8691 18.17 59.1538 18.24 59.5551 18.24H60.3531V19.5H59.2051ZM64.3053 19.668C63.7173 19.668 63.2319 19.57 62.8493 19.374C62.4666 19.178 62.1819 18.9213 61.9953 18.604C61.8086 18.2773 61.7153 17.9227 61.7153 17.54C61.7153 16.868 61.9766 16.336 62.4993 15.944C63.0219 15.552 63.7686 15.356 64.7393 15.356H66.5593V15.23C66.5593 14.6887 66.4099 14.2827 66.1113 14.012C65.8219 13.7413 65.4439 13.606 64.9773 13.606C64.5666 13.606 64.2073 13.7087 63.8993 13.914C63.6006 14.11 63.4186 14.404 63.3533 14.796H61.8693C61.9159 14.292 62.0839 13.8627 62.3733 13.508C62.6719 13.144 63.0453 12.8687 63.4933 12.682C63.9506 12.486 64.4499 12.388 64.9913 12.388C65.9619 12.388 66.7133 12.6447 67.2453 13.158C67.7773 13.662 68.0433 14.3527 68.0433 15.23V19.5H66.7553L66.6293 18.31C66.4333 18.6927 66.1486 19.0147 65.7753 19.276C65.4019 19.5373 64.9119 19.668 64.3053 19.668ZM64.5993 18.464C65.0006 18.464 65.3366 18.3707 65.6073 18.184C65.8873 17.988 66.1019 17.7313 66.2513 17.414C66.4099 17.0967 66.5079 16.7467 66.5453 16.364H64.8933C64.3053 16.364 63.8853 16.4667 63.6333 16.672C63.3906 16.8773 63.2693 17.134 63.2693 17.442C63.2693 17.7593 63.3859 18.0113 63.6193 18.198C63.8619 18.3753 64.1886 18.464 64.5993 18.464Z" fill="#0CE908"/>
</svg>
