<svg width="126" height="28" viewBox="0 0 126 28" fill="none" xmlns="http://www.w3.org/2000/svg">
<g clip-path="url(#clip0_117_428)">
<path d="M23.4202 9.5L16.2952 16.625L12.5452 12.875L6.92017 18.5" stroke="#BFBFBF" stroke-width="2" stroke-linecap="round" stroke-linejoin="round"/>
<path d="M18.9202 9.5H23.4202V14" stroke="#BFBFBF" stroke-width="2" stroke-linecap="round" stroke-linejoin="round"/>
</g>
<path d="M33.1642 19V9.2H34.6482V19H33.1642ZM36.5808 19V12.056H37.8968L38.0088 13.274C38.2235 12.8447 38.5362 12.5087 38.9468 12.266C39.3668 12.014 39.8475 11.888 40.3888 11.888C41.2288 11.888 41.8868 12.1493 42.3628 12.672C42.8482 13.1947 43.0908 13.974 43.0908 15.01V19H41.6208V15.164C41.6208 13.82 41.0702 13.148 39.9688 13.148C39.4182 13.148 38.9608 13.344 38.5968 13.736C38.2422 14.128 38.0648 14.688 38.0648 15.416V19H36.5808ZM46.6753 19L44.0713 12.056H45.6253L47.5573 17.586L49.4893 12.056H51.0293L48.4393 19H46.6753ZM55.1413 19.168C54.46 19.168 53.8533 19.0187 53.3213 18.72C52.7987 18.412 52.388 17.9873 52.0893 17.446C51.7907 16.9047 51.6413 16.2747 51.6413 15.556C51.6413 14.828 51.786 14.1887 52.0753 13.638C52.374 13.0873 52.7847 12.658 53.3073 12.35C53.8393 12.042 54.4553 11.888 55.1553 11.888C55.8367 11.888 56.4293 12.042 56.9333 12.35C57.4373 12.6487 57.8293 13.05 58.1093 13.554C58.3893 14.058 58.5293 14.6133 58.5293 15.22C58.5293 15.3133 58.5247 15.416 58.5153 15.528C58.5153 15.6307 58.5107 15.7473 58.5013 15.878H53.0973C53.144 16.55 53.3633 17.0633 53.7553 17.418C54.1567 17.7633 54.6187 17.936 55.1413 17.936C55.5613 17.936 55.9113 17.8427 56.1913 17.656C56.4807 17.46 56.6953 17.1987 56.8353 16.872H58.3193C58.1327 17.5253 57.7593 18.0713 57.1993 18.51C56.6487 18.9487 55.9627 19.168 55.1413 19.168ZM55.1413 13.106C54.6467 13.106 54.208 13.2553 53.8253 13.554C53.4427 13.8433 53.2093 14.282 53.1253 14.87H57.0453C57.0173 14.3287 56.826 13.8993 56.4713 13.582C56.1167 13.2647 55.6733 13.106 55.1413 13.106ZM62.8411 19.168C61.9638 19.168 61.2404 18.9533 60.6711 18.524C60.1018 18.0947 59.7751 17.5253 59.6911 16.816H61.1891C61.2638 17.1333 61.4411 17.4087 61.7211 17.642C62.0011 17.866 62.3698 17.978 62.8271 17.978C63.2751 17.978 63.6018 17.8847 63.8071 17.698C64.0124 17.5113 64.1151 17.2967 64.1151 17.054C64.1151 16.6993 63.9704 16.4613 63.6811 16.34C63.4011 16.2093 63.0091 16.0927 62.5051 15.99C62.1131 15.906 61.7211 15.794 61.3291 15.654C60.9464 15.514 60.6244 15.318 60.3631 15.066C60.1111 14.8047 59.9851 14.4547 59.9851 14.016C59.9851 13.4093 60.2184 12.9053 60.6851 12.504C61.1518 12.0933 61.8051 11.888 62.6451 11.888C63.4198 11.888 64.0451 12.0747 64.5211 12.448C65.0064 12.8213 65.2911 13.3487 65.3751 14.03H63.9471C63.9004 13.7313 63.7604 13.498 63.5271 13.33C63.3031 13.162 62.9998 13.078 62.6171 13.078C62.2438 13.078 61.9544 13.1573 61.7491 13.316C61.5438 13.4653 61.4411 13.6613 61.4411 13.904C61.4411 14.1467 61.5811 14.338 61.8611 14.478C62.1504 14.618 62.5284 14.744 62.9951 14.856C63.4618 14.9587 63.8911 15.08 64.2831 15.22C64.6844 15.3507 65.0064 15.5467 65.2491 15.808C65.4918 16.0693 65.6131 16.452 65.6131 16.956C65.6224 17.5907 65.3751 18.118 64.8711 18.538C64.3764 18.958 63.6998 19.168 62.8411 19.168ZM69.8854 19C69.2041 19 68.6627 18.8367 68.2614 18.51C67.8601 18.174 67.6594 17.5813 67.6594 16.732V13.302H66.4694V12.056H67.6594L67.8414 10.292H69.1434V12.056H71.1034V13.302H69.1434V16.732C69.1434 17.1147 69.2227 17.3807 69.3814 17.53C69.5494 17.67 69.8341 17.74 70.2354 17.74H71.0334V19H69.8854ZM73.4736 10.74C73.1936 10.74 72.9602 10.656 72.7736 10.488C72.5962 10.3107 72.5076 10.0913 72.5076 9.83C72.5076 9.56867 72.5962 9.354 72.7736 9.186C72.9602 9.00867 73.1936 8.92 73.4736 8.92C73.7536 8.92 73.9822 9.00867 74.1596 9.186C74.3462 9.354 74.4396 9.56867 74.4396 9.83C74.4396 10.0913 74.3462 10.3107 74.1596 10.488C73.9822 10.656 73.7536 10.74 73.4736 10.74ZM72.7316 19V12.056H74.2156V19H72.7316ZM76.1746 19V12.056H77.4906L77.6166 13.036C77.8406 12.6813 78.1346 12.4013 78.4986 12.196C78.8719 11.9907 79.3012 11.888 79.7866 11.888C80.8879 11.888 81.6532 12.322 82.0826 13.19C82.3346 12.7887 82.6706 12.4713 83.0906 12.238C83.5199 12.0047 83.9819 11.888 84.4766 11.888C85.3446 11.888 86.0259 12.1493 86.5206 12.672C87.0152 13.1947 87.2626 13.974 87.2626 15.01V19H85.7786V15.164C85.7786 13.82 85.2652 13.148 84.2386 13.148C83.7159 13.148 83.2866 13.344 82.9506 13.736C82.6239 14.128 82.4606 14.688 82.4606 15.416V19H80.9766V15.164C80.9766 13.82 80.4586 13.148 79.4226 13.148C78.9092 13.148 78.4846 13.344 78.1486 13.736C77.8219 14.128 77.6586 14.688 77.6586 15.416V19H76.1746ZM92.2468 19.168C91.5655 19.168 90.9588 19.0187 90.4268 18.72C89.9041 18.412 89.4935 17.9873 89.1948 17.446C88.8961 16.9047 88.7468 16.2747 88.7468 15.556C88.7468 14.828 88.8915 14.1887 89.1808 13.638C89.4795 13.0873 89.8901 12.658 90.4128 12.35C90.9448 12.042 91.5608 11.888 92.2608 11.888C92.9421 11.888 93.5348 12.042 94.0388 12.35C94.5428 12.6487 94.9348 13.05 95.2148 13.554C95.4948 14.058 95.6348 14.6133 95.6348 15.22C95.6348 15.3133 95.6301 15.416 95.6208 15.528C95.6208 15.6307 95.6161 15.7473 95.6068 15.878H90.2028C90.2495 16.55 90.4688 17.0633 90.8608 17.418C91.2621 17.7633 91.7241 17.936 92.2468 17.936C92.6668 17.936 93.0168 17.8427 93.2968 17.656C93.5861 17.46 93.8008 17.1987 93.9408 16.872H95.4248C95.2381 17.5253 94.8648 18.0713 94.3048 18.51C93.7541 18.9487 93.0681 19.168 92.2468 19.168ZM92.2468 13.106C91.7521 13.106 91.3135 13.2553 90.9308 13.554C90.5481 13.8433 90.3148 14.282 90.2308 14.87H94.1508C94.1228 14.3287 93.9315 13.8993 93.5768 13.582C93.2221 13.2647 92.7788 13.106 92.2468 13.106ZM97.1746 19V12.056H98.4906L98.6026 13.274C98.8172 12.8447 99.1299 12.5087 99.5406 12.266C99.9606 12.014 100.441 11.888 100.983 11.888C101.823 11.888 102.481 12.1493 102.957 12.672C103.442 13.1947 103.685 13.974 103.685 15.01V19H102.215V15.164C102.215 13.82 101.664 13.148 100.563 13.148C100.012 13.148 99.5546 13.344 99.1906 13.736C98.8359 14.128 98.6586 14.688 98.6586 15.416V19H97.1746ZM108.344 19C107.663 19 107.122 18.8367 106.72 18.51C106.319 18.174 106.118 17.5813 106.118 16.732V13.302H104.928V12.056H106.118L106.3 10.292H107.602V12.056H109.562V13.302H107.602V16.732C107.602 17.1147 107.682 17.3807 107.84 17.53C108.008 17.67 108.293 17.74 108.694 17.74H109.492V19H108.344ZM114.163 19.168C113.5 19.168 112.903 19.0187 112.371 18.72C111.848 18.412 111.433 17.9873 111.125 17.446C110.817 16.8953 110.663 16.256 110.663 15.528C110.663 14.8 110.817 14.1653 111.125 13.624C111.442 13.0733 111.867 12.6487 112.399 12.35C112.931 12.042 113.523 11.888 114.177 11.888C114.839 11.888 115.432 12.042 115.955 12.35C116.487 12.6487 116.907 13.0733 117.215 13.624C117.532 14.1653 117.691 14.8 117.691 15.528C117.691 16.256 117.532 16.8953 117.215 17.446C116.907 17.9873 116.487 18.412 115.955 18.72C115.423 19.0187 114.825 19.168 114.163 19.168ZM114.163 17.894C114.517 17.894 114.844 17.8053 115.143 17.628C115.451 17.4507 115.698 17.1893 115.885 16.844C116.071 16.4893 116.165 16.0507 116.165 15.528C116.165 15.0053 116.071 14.5713 115.885 14.226C115.707 13.8713 115.465 13.6053 115.157 13.428C114.858 13.2507 114.531 13.162 114.177 13.162C113.822 13.162 113.491 13.2507 113.183 13.428C112.884 13.6053 112.641 13.8713 112.455 14.226C112.268 14.5713 112.175 15.0053 112.175 15.528C112.175 16.0507 112.268 16.4893 112.455 16.844C112.641 17.1893 112.884 17.4507 113.183 17.628C113.481 17.8053 113.808 17.894 114.163 17.894Z" fill="#BFBFBF"/>
<rect x="0.670166" y="0.5" width="124" height="27" rx="4.5" stroke="#BFBFBF"/>
<defs>
<clipPath id="clip0_117_428">
<rect width="18" height="18" fill="white" transform="translate(6.17017 5)"/>
</clipPath>
</defs>
</svg>
