<svg width="138" height="29" viewBox="0 0 138 29" fill="none" xmlns="http://www.w3.org/2000/svg">
<g clip-path="url(#clip0_117_367)">
<path d="M12.9202 22C13.3344 22 13.6702 21.6642 13.6702 21.25C13.6702 20.8358 13.3344 20.5 12.9202 20.5C12.506 20.5 12.1702 20.8358 12.1702 21.25C12.1702 21.6642 12.506 22 12.9202 22Z" stroke="#BFBFBF" stroke-width="2" stroke-linecap="round" stroke-linejoin="round"/>
<path d="M21.1702 22C21.5844 22 21.9202 21.6642 21.9202 21.25C21.9202 20.8358 21.5844 20.5 21.1702 20.5C20.756 20.5 20.4202 20.8358 20.4202 21.25C20.4202 21.6642 20.756 22 21.1702 22Z" stroke="#BFBFBF" stroke-width="2" stroke-linecap="round" stroke-linejoin="round"/>
<path d="M6.92017 6.25H9.92017L11.9302 16.2925C11.9987 16.6378 12.1866 16.948 12.4608 17.1687C12.7351 17.3895 13.0782 17.5067 13.4302 17.5H20.7202C21.0721 17.5067 21.4153 17.3895 21.6895 17.1687C21.9637 16.948 22.1516 16.6378 22.2202 16.2925L23.4202 10H10.6702" stroke="#BFBFBF" stroke-width="2" stroke-linecap="round" stroke-linejoin="round"/>
</g>
<path d="M36.3982 19.668C35.6795 19.668 35.0495 19.542 34.5082 19.29C33.9668 19.038 33.5422 18.6787 33.2342 18.212C32.9355 17.7453 32.7815 17.19 32.7722 16.546H34.3402C34.3495 17.0687 34.5315 17.512 34.8862 17.876C35.2408 18.24 35.7402 18.422 36.3842 18.422C36.9535 18.422 37.3968 18.2867 37.7142 18.016C38.0408 17.736 38.2042 17.3813 38.2042 16.952C38.2042 16.6067 38.1248 16.3267 37.9662 16.112C37.8168 15.8973 37.6068 15.72 37.3362 15.58C37.0748 15.44 36.7715 15.314 36.4262 15.202C36.0808 15.09 35.7168 14.9687 35.3342 14.838C34.5782 14.586 34.0088 14.2593 33.6262 13.858C33.2528 13.4567 33.0662 12.9293 33.0662 12.276C33.0568 11.7253 33.1828 11.2447 33.4442 10.834C33.7148 10.4233 34.0882 10.106 34.5642 9.882C35.0495 9.64867 35.6142 9.532 36.2582 9.532C36.8928 9.532 37.4482 9.64867 37.9242 9.882C38.4095 10.1153 38.7875 10.442 39.0582 10.862C39.3288 11.2727 39.4688 11.7533 39.4782 12.304H37.9102C37.9102 12.052 37.8448 11.814 37.7142 11.59C37.5835 11.3567 37.3922 11.1653 37.1402 11.016C36.8882 10.8667 36.5802 10.792 36.2162 10.792C35.7495 10.7827 35.3622 10.8993 35.0542 11.142C34.7555 11.3847 34.6062 11.7207 34.6062 12.15C34.6062 12.5327 34.7182 12.8267 34.9422 13.032C35.1662 13.2373 35.4742 13.41 35.8662 13.55C36.2582 13.6807 36.7062 13.8347 37.2102 14.012C37.6955 14.1707 38.1295 14.362 38.5122 14.586C38.8948 14.81 39.1982 15.104 39.4222 15.468C39.6555 15.832 39.7722 16.294 39.7722 16.854C39.7722 17.3487 39.6462 17.8107 39.3942 18.24C39.1422 18.66 38.7642 19.0053 38.2602 19.276C37.7562 19.5373 37.1355 19.668 36.3982 19.668ZM43.9006 19.668C43.0606 19.668 42.398 19.4067 41.9126 18.884C41.4366 18.3613 41.1986 17.582 41.1986 16.546V12.556H42.6826V16.392C42.6826 17.736 43.2333 18.408 44.3346 18.408C44.8853 18.408 45.338 18.212 45.6926 17.82C46.0473 17.428 46.2246 16.868 46.2246 16.14V12.556H47.7086V19.5H46.3926L46.2806 18.282C46.066 18.7113 45.7486 19.052 45.3286 19.304C44.918 19.5467 44.442 19.668 43.9006 19.668ZM49.5964 22.58V12.556H50.9264L51.0804 13.634C51.3044 13.3073 51.6124 13.018 52.0044 12.766C52.3964 12.514 52.9004 12.388 53.5164 12.388C54.1884 12.388 54.7811 12.5467 55.2944 12.864C55.8078 13.1813 56.2091 13.6153 56.4984 14.166C56.7971 14.7167 56.9464 15.342 56.9464 16.042C56.9464 16.742 56.7971 17.3673 56.4984 17.918C56.2091 18.4593 55.8078 18.8887 55.2944 19.206C54.7811 19.514 54.1838 19.668 53.5024 19.668C52.9611 19.668 52.4804 19.5607 52.0604 19.346C51.6498 19.1313 51.3231 18.828 51.0804 18.436V22.58H49.5964ZM53.2504 18.38C53.8851 18.38 54.4078 18.1653 54.8184 17.736C55.2291 17.2973 55.4344 16.728 55.4344 16.028C55.4344 15.5707 55.3411 15.1647 55.1544 14.81C54.9678 14.4553 54.7111 14.18 54.3844 13.984C54.0578 13.7787 53.6798 13.676 53.2504 13.676C52.6158 13.676 52.0931 13.8953 51.6824 14.334C51.2811 14.7727 51.0804 15.3373 51.0804 16.028C51.0804 16.728 51.2811 17.2973 51.6824 17.736C52.0931 18.1653 52.6158 18.38 53.2504 18.38ZM61.7995 19.668C61.1182 19.668 60.5115 19.5187 59.9795 19.22C59.4569 18.912 59.0462 18.4873 58.7475 17.946C58.4489 17.4047 58.2995 16.7747 58.2995 16.056C58.2995 15.328 58.4442 14.6887 58.7335 14.138C59.0322 13.5873 59.4429 13.158 59.9655 12.85C60.4975 12.542 61.1135 12.388 61.8135 12.388C62.4949 12.388 63.0875 12.542 63.5915 12.85C64.0955 13.1487 64.4875 13.55 64.7675 14.054C65.0475 14.558 65.1875 15.1133 65.1875 15.72C65.1875 15.8133 65.1829 15.916 65.1735 16.028C65.1735 16.1307 65.1689 16.2473 65.1595 16.378H59.7555C59.8022 17.05 60.0215 17.5633 60.4135 17.918C60.8149 18.2633 61.2769 18.436 61.7995 18.436C62.2195 18.436 62.5695 18.3427 62.8495 18.156C63.1389 17.96 63.3535 17.6987 63.4935 17.372H64.9775C64.7909 18.0253 64.4175 18.5713 63.8575 19.01C63.3069 19.4487 62.6209 19.668 61.7995 19.668ZM61.7995 13.606C61.3049 13.606 60.8662 13.7553 60.4835 14.054C60.1009 14.3433 59.8675 14.782 59.7835 15.37H63.7035C63.6755 14.8287 63.4842 14.3993 63.1295 14.082C62.7749 13.7647 62.3315 13.606 61.7995 13.606ZM66.7273 19.5V12.556H68.0573L68.1833 13.872C68.426 13.4147 68.762 13.0553 69.1913 12.794C69.63 12.5233 70.1573 12.388 70.7733 12.388V13.942H70.3673C69.9566 13.942 69.588 14.012 69.2613 14.152C68.944 14.2827 68.6873 14.5113 68.4913 14.838C68.3046 15.1553 68.2113 15.5987 68.2113 16.168V19.5H66.7273ZM72.0457 19.5V12.556H73.3617L73.4877 13.536C73.7117 13.1813 74.0057 12.9013 74.3697 12.696C74.743 12.4907 75.1723 12.388 75.6577 12.388C76.759 12.388 77.5243 12.822 77.9537 13.69C78.2057 13.2887 78.5417 12.9713 78.9617 12.738C79.391 12.5047 79.853 12.388 80.3477 12.388C81.2157 12.388 81.897 12.6493 82.3917 13.172C82.8863 13.6947 83.1337 14.474 83.1337 15.51V19.5H81.6497V15.664C81.6497 14.32 81.1363 13.648 80.1097 13.648C79.587 13.648 79.1577 13.844 78.8217 14.236C78.495 14.628 78.3317 15.188 78.3317 15.916V19.5H76.8477V15.664C76.8477 14.32 76.3297 13.648 75.2937 13.648C74.7803 13.648 74.3557 13.844 74.0197 14.236C73.693 14.628 73.5297 15.188 73.5297 15.916V19.5H72.0457ZM88.1179 19.668C87.4366 19.668 86.8299 19.5187 86.2979 19.22C85.7752 18.912 85.3646 18.4873 85.0659 17.946C84.7672 17.4047 84.6179 16.7747 84.6179 16.056C84.6179 15.328 84.7626 14.6887 85.0519 14.138C85.3506 13.5873 85.7612 13.158 86.2839 12.85C86.8159 12.542 87.4319 12.388 88.1319 12.388C88.8132 12.388 89.4059 12.542 89.9099 12.85C90.4139 13.1487 90.8059 13.55 91.0859 14.054C91.3659 14.558 91.5059 15.1133 91.5059 15.72C91.5059 15.8133 91.5012 15.916 91.4919 16.028C91.4919 16.1307 91.4872 16.2473 91.4779 16.378H86.0739C86.1206 17.05 86.3399 17.5633 86.7319 17.918C87.1332 18.2633 87.5952 18.436 88.1179 18.436C88.5379 18.436 88.8879 18.3427 89.1679 18.156C89.4572 17.96 89.6719 17.6987 89.8119 17.372H91.2959C91.1092 18.0253 90.7359 18.5713 90.1759 19.01C89.6252 19.4487 88.9392 19.668 88.1179 19.668ZM88.1179 13.606C87.6232 13.606 87.1846 13.7553 86.8019 14.054C86.4192 14.3433 86.1859 14.782 86.1019 15.37H90.0219C89.9939 14.8287 89.8026 14.3993 89.4479 14.082C89.0932 13.7647 88.6499 13.606 88.1179 13.606ZM93.0457 19.5V12.556H94.3757L94.5017 13.872C94.7443 13.4147 95.0803 13.0553 95.5097 12.794C95.9483 12.5233 96.4757 12.388 97.0917 12.388V13.942H96.6857C96.275 13.942 95.9063 14.012 95.5797 14.152C95.2623 14.2827 95.0057 14.5113 94.8097 14.838C94.623 15.1553 94.5297 15.5987 94.5297 16.168V19.5H93.0457ZM101.463 19.668C100.781 19.668 100.17 19.514 99.6286 19.206C99.0966 18.898 98.6766 18.4733 98.3686 17.932C98.07 17.3813 97.9206 16.7467 97.9206 16.028C97.9206 15.3093 98.07 14.6793 98.3686 14.138C98.6766 13.5873 99.0966 13.158 99.6286 12.85C100.17 12.542 100.781 12.388 101.463 12.388C102.321 12.388 103.04 12.612 103.619 13.06C104.207 13.508 104.585 14.1147 104.753 14.88H103.199C103.105 14.4973 102.9 14.1987 102.583 13.984C102.265 13.7693 101.892 13.662 101.463 13.662C101.099 13.662 100.763 13.7553 100.455 13.942C100.147 14.1193 99.8993 14.3853 99.7126 14.74C99.526 15.0853 99.4326 15.5147 99.4326 16.028C99.4326 16.5413 99.526 16.9753 99.7126 17.33C99.8993 17.6753 100.147 17.9413 100.455 18.128C100.763 18.3147 101.099 18.408 101.463 18.408C101.892 18.408 102.265 18.3007 102.583 18.086C102.9 17.8713 103.105 17.568 103.199 17.176H104.753C104.594 17.9227 104.221 18.5247 103.633 18.982C103.045 19.4393 102.321 19.668 101.463 19.668ZM108.714 19.668C108.126 19.668 107.641 19.57 107.258 19.374C106.875 19.178 106.591 18.9213 106.404 18.604C106.217 18.2773 106.124 17.9227 106.124 17.54C106.124 16.868 106.385 16.336 106.908 15.944C107.431 15.552 108.177 15.356 109.148 15.356H110.968V15.23C110.968 14.6887 110.819 14.2827 110.52 14.012C110.231 13.7413 109.853 13.606 109.386 13.606C108.975 13.606 108.616 13.7087 108.308 13.914C108.009 14.11 107.827 14.404 107.762 14.796H106.278C106.325 14.292 106.493 13.8627 106.782 13.508C107.081 13.144 107.454 12.8687 107.902 12.682C108.359 12.486 108.859 12.388 109.4 12.388C110.371 12.388 111.122 12.6447 111.654 13.158C112.186 13.662 112.452 14.3527 112.452 15.23V19.5H111.164L111.038 18.31C110.842 18.6927 110.557 19.0147 110.184 19.276C109.811 19.5373 109.321 19.668 108.714 19.668ZM109.008 18.464C109.409 18.464 109.745 18.3707 110.016 18.184C110.296 17.988 110.511 17.7313 110.66 17.414C110.819 17.0967 110.917 16.7467 110.954 16.364H109.302C108.714 16.364 108.294 16.4667 108.042 16.672C107.799 16.8773 107.678 17.134 107.678 17.442C107.678 17.7593 107.795 18.0113 108.028 18.198C108.271 18.3753 108.597 18.464 109.008 18.464ZM117.346 19.668C116.674 19.668 116.082 19.5093 115.568 19.192C115.055 18.8747 114.654 18.4407 114.364 17.89C114.075 17.3393 113.93 16.714 113.93 16.014C113.93 15.314 114.075 14.6933 114.364 14.152C114.654 13.6013 115.055 13.172 115.568 12.864C116.091 12.5467 116.688 12.388 117.36 12.388C117.911 12.388 118.392 12.4953 118.802 12.71C119.222 12.9247 119.549 13.228 119.782 13.62V9.42H121.266V19.5H119.936L119.782 18.422C119.558 18.7487 119.25 19.038 118.858 19.29C118.466 19.542 117.962 19.668 117.346 19.668ZM117.612 18.38C118.247 18.38 118.765 18.1607 119.166 17.722C119.577 17.2833 119.782 16.7187 119.782 16.028C119.782 15.328 119.577 14.7633 119.166 14.334C118.765 13.8953 118.247 13.676 117.612 13.676C116.978 13.676 116.455 13.8953 116.044 14.334C115.634 14.7633 115.428 15.328 115.428 16.028C115.428 16.4853 115.522 16.8913 115.708 17.246C115.895 17.6007 116.152 17.8807 116.478 18.086C116.814 18.282 117.192 18.38 117.612 18.38ZM126.385 19.668C125.723 19.668 125.125 19.5187 124.593 19.22C124.071 18.912 123.655 18.4873 123.347 17.946C123.039 17.3953 122.885 16.756 122.885 16.028C122.885 15.3 123.039 14.6653 123.347 14.124C123.665 13.5733 124.089 13.1487 124.621 12.85C125.153 12.542 125.746 12.388 126.399 12.388C127.062 12.388 127.655 12.542 128.177 12.85C128.709 13.1487 129.129 13.5733 129.437 14.124C129.755 14.6653 129.913 15.3 129.913 16.028C129.913 16.756 129.755 17.3953 129.437 17.946C129.129 18.4873 128.709 18.912 128.177 19.22C127.645 19.5187 127.048 19.668 126.385 19.668ZM126.385 18.394C126.74 18.394 127.067 18.3053 127.365 18.128C127.673 17.9507 127.921 17.6893 128.107 17.344C128.294 16.9893 128.387 16.5507 128.387 16.028C128.387 15.5053 128.294 15.0713 128.107 14.726C127.93 14.3713 127.687 14.1053 127.379 13.928C127.081 13.7507 126.754 13.662 126.399 13.662C126.045 13.662 125.713 13.7507 125.405 13.928C125.107 14.1053 124.864 14.3713 124.677 14.726C124.491 15.0713 124.397 15.5053 124.397 16.028C124.397 16.5507 124.491 16.9893 124.677 17.344C124.864 17.6893 125.107 17.9507 125.405 18.128C125.704 18.3053 126.031 18.394 126.385 18.394Z" fill="#BFBFBF"/>
<rect x="0.670166" y="1" width="136" height="27" rx="4.5" stroke="#BFBFBF"/>
<defs>
<clipPath id="clip0_117_367">
<rect width="18" height="18" fill="white" transform="translate(6.17017 5.5)"/>
</clipPath>
</defs>
</svg>
