<svg width="24" height="24" viewBox="0 0 24 24" fill="none" xmlns="http://www.w3.org/2000/svg">
<path d="M11.9995 13C12.5518 13 12.9995 12.5523 12.9995 12C12.9995 11.4477 12.5518 11 11.9995 11C11.4472 11 10.9995 11.4477 10.9995 12C10.9995 12.5523 11.4472 13 11.9995 13Z" stroke="#9B9B9B" stroke-width="2" stroke-linecap="round" stroke-linejoin="round"/>
<path d="M18.9995 13C19.5518 13 19.9995 12.5523 19.9995 12C19.9995 11.4477 19.5518 11 18.9995 11C18.4472 11 17.9995 11.4477 17.9995 12C17.9995 12.5523 18.4472 13 18.9995 13Z" stroke="#9B9B9B" stroke-width="2" stroke-linecap="round" stroke-linejoin="round"/>
<path d="M4.99951 13C5.5518 13 5.99951 12.5523 5.99951 12C5.99951 11.4477 5.5518 11 4.99951 11C4.44723 11 3.99951 11.4477 3.99951 12C3.99951 12.5523 4.44723 13 4.99951 13Z" stroke="#9B9B9B" stroke-width="2" stroke-linecap="round" stroke-linejoin="round"/>
</svg>
