<svg width="60" height="61" viewBox="0 0 60 61" fill="none" xmlns="http://www.w3.org/2000/svg">
<rect y="0.514465" width="60" height="60" rx="20" fill="url(#paint0_linear_234_180)"/>
<path d="M43.3636 30.969C43.3636 34.1035 42.7765 36.7881 41.6023 39.023C40.4375 41.2484 38.8466 42.9529 36.8295 44.1366C34.822 45.3203 32.5445 45.9122 29.9972 45.9122C27.4498 45.9122 25.1676 45.3203 23.1506 44.1366C21.143 42.9434 19.5521 41.2342 18.3778 39.0088C17.2131 36.7739 16.6307 34.094 16.6307 30.969C16.6307 27.8345 17.2131 25.1546 18.3778 22.9292C19.5521 20.6944 21.143 18.9851 23.1506 17.8014C25.1676 16.6177 27.4498 16.0258 29.9972 16.0258C32.5445 16.0258 34.822 16.6177 36.8295 17.8014C38.8466 18.9851 40.4375 20.6944 41.6023 22.9292C42.7765 25.1546 43.3636 27.8345 43.3636 30.969ZM38.0653 30.969C38.0653 28.7626 37.7197 26.9018 37.0284 25.3866C36.3466 23.862 35.3996 22.7114 34.1875 21.9349C32.9754 21.1489 31.5786 20.7559 29.9972 20.7559C28.4157 20.7559 27.0189 21.1489 25.8068 21.9349C24.5947 22.7114 23.643 23.862 22.9517 25.3866C22.2699 26.9018 21.929 28.7626 21.929 30.969C21.929 33.1754 22.2699 35.041 22.9517 36.5656C23.643 38.0808 24.5947 39.2313 25.8068 40.0173C27.0189 40.7938 28.4157 41.1821 29.9972 41.1821C31.5786 41.1821 32.9754 40.7938 34.1875 40.0173C35.3996 39.2313 36.3466 38.0808 37.0284 36.5656C37.7197 35.041 38.0653 33.1754 38.0653 30.969Z" fill="white"/>
<defs>
<linearGradient id="paint0_linear_234_180" x1="-5.34587" y1="-1.56259" x2="71.6983" y2="21.5952" gradientUnits="userSpaceOnUse">
<stop stop-color="#510091"/>
<stop offset="1" stop-color="#1D4B79"/>
</linearGradient>
</defs>
</svg>
