<svg width="26" height="26" viewBox="0 0 26 26" fill="none" xmlns="http://www.w3.org/2000/svg">
<path d="M17.7999 3.40002H20.1999C20.8364 3.40002 21.4469 3.65288 21.897 4.10297C22.347 4.55306 22.5999 5.1635 22.5999 5.80002V22.6C22.5999 23.2365 22.347 23.847 21.897 24.2971C21.4469 24.7472 20.8364 25 20.1999 25H5.7999C5.16338 25 4.55293 24.7472 4.10285 24.2971C3.65276 23.847 3.3999 23.2365 3.3999 22.6V5.80002C3.3999 5.1635 3.65276 4.55306 4.10285 4.10297C4.55293 3.65288 5.16338 3.40002 5.7999 3.40002H8.1999" stroke="#9B9B9B" stroke-width="2" stroke-linecap="round" stroke-linejoin="round"/>
<path d="M16.6 1H9.39995C8.73721 1 8.19995 1.53726 8.19995 2.2V4.6C8.19995 5.26274 8.73721 5.8 9.39995 5.8H16.6C17.2627 5.8 17.8 5.26274 17.8 4.6V2.2C17.8 1.53726 17.2627 1 16.6 1Z" stroke="#9B9B9B" stroke-width="2" stroke-linecap="round" stroke-linejoin="round"/>
<line x1="7.08423" y1="10.5796" x2="15.4842" y2="10.5796" stroke="#9B9B9B"/>
<line x1="7.08423" y1="14.1935" x2="17.7999" y2="14.1935" stroke="#9B9B9B"/>
<line x1="7.08423" y1="17.9097" x2="17.7999" y2="17.9097" stroke="#9B9B9B"/>
</svg>
