<svg width="84" height="28" viewBox="0 0 84 28" fill="none" xmlns="http://www.w3.org/2000/svg">
<g clip-path="url(#clip0_117_368)">
<path d="M15.1702 5.75V22.25" stroke="#BFBFBF" stroke-width="2" stroke-linecap="round" stroke-linejoin="round"/>
<path d="M18.9202 8.75H13.2952C12.599 8.75 11.9313 9.02656 11.439 9.51884C10.9467 10.0111 10.6702 10.6788 10.6702 11.375C10.6702 12.0712 10.9467 12.7389 11.439 13.2312C11.9313 13.7234 12.599 14 13.2952 14H17.0452C17.7414 14 18.409 14.2766 18.9013 14.7688C19.3936 15.2611 19.6702 15.9288 19.6702 16.625C19.6702 17.3212 19.3936 17.9889 18.9013 18.4812C18.409 18.9734 17.7414 19.25 17.0452 19.25H10.6702" stroke="#BFBFBF" stroke-width="2" stroke-linecap="round" stroke-linejoin="round"/>
</g>
<path d="M36.3982 19.168C35.6795 19.168 35.0495 19.042 34.5082 18.79C33.9668 18.538 33.5422 18.1787 33.2342 17.712C32.9355 17.2453 32.7815 16.69 32.7722 16.046H34.3402C34.3495 16.5687 34.5315 17.012 34.8862 17.376C35.2408 17.74 35.7402 17.922 36.3842 17.922C36.9535 17.922 37.3968 17.7867 37.7142 17.516C38.0408 17.236 38.2042 16.8813 38.2042 16.452C38.2042 16.1067 38.1248 15.8267 37.9662 15.612C37.8168 15.3973 37.6068 15.22 37.3362 15.08C37.0748 14.94 36.7715 14.814 36.4262 14.702C36.0808 14.59 35.7168 14.4687 35.3342 14.338C34.5782 14.086 34.0088 13.7593 33.6262 13.358C33.2528 12.9567 33.0662 12.4293 33.0662 11.776C33.0568 11.2253 33.1828 10.7447 33.4442 10.334C33.7148 9.92333 34.0882 9.606 34.5642 9.382C35.0495 9.14867 35.6142 9.032 36.2582 9.032C36.8928 9.032 37.4482 9.14867 37.9242 9.382C38.4095 9.61533 38.7875 9.942 39.0582 10.362C39.3288 10.7727 39.4688 11.2533 39.4782 11.804H37.9102C37.9102 11.552 37.8448 11.314 37.7142 11.09C37.5835 10.8567 37.3922 10.6653 37.1402 10.516C36.8882 10.3667 36.5802 10.292 36.2162 10.292C35.7495 10.2827 35.3622 10.3993 35.0542 10.642C34.7555 10.8847 34.6062 11.2207 34.6062 11.65C34.6062 12.0327 34.7182 12.3267 34.9422 12.532C35.1662 12.7373 35.4742 12.91 35.8662 13.05C36.2582 13.1807 36.7062 13.3347 37.2102 13.512C37.6955 13.6707 38.1295 13.862 38.5122 14.086C38.8948 14.31 39.1982 14.604 39.4222 14.968C39.6555 15.332 39.7722 15.794 39.7722 16.354C39.7722 16.8487 39.6462 17.3107 39.3942 17.74C39.1422 18.16 38.7642 18.5053 38.2602 18.776C37.7562 19.0373 37.1355 19.168 36.3982 19.168ZM43.6906 19.168C43.1026 19.168 42.6173 19.07 42.2346 18.874C41.852 18.678 41.5673 18.4213 41.3806 18.104C41.194 17.7773 41.1006 17.4227 41.1006 17.04C41.1006 16.368 41.362 15.836 41.8846 15.444C42.4073 15.052 43.154 14.856 44.1246 14.856H45.9446V14.73C45.9446 14.1887 45.7953 13.7827 45.4966 13.512C45.2073 13.2413 44.8293 13.106 44.3626 13.106C43.952 13.106 43.5926 13.2087 43.2846 13.414C42.986 13.61 42.804 13.904 42.7386 14.296H41.2546C41.3013 13.792 41.4693 13.3627 41.7586 13.008C42.0573 12.644 42.4306 12.3687 42.8786 12.182C43.336 11.986 43.8353 11.888 44.3766 11.888C45.3473 11.888 46.0986 12.1447 46.6306 12.658C47.1626 13.162 47.4286 13.8527 47.4286 14.73V19H46.1406L46.0146 17.81C45.8186 18.1927 45.534 18.5147 45.1606 18.776C44.7873 19.0373 44.2973 19.168 43.6906 19.168ZM43.9846 17.964C44.386 17.964 44.722 17.8707 44.9926 17.684C45.2726 17.488 45.4873 17.2313 45.6366 16.914C45.7953 16.5967 45.8933 16.2467 45.9306 15.864H44.2786C43.6906 15.864 43.2706 15.9667 43.0186 16.172C42.776 16.3773 42.6546 16.634 42.6546 16.942C42.6546 17.2593 42.7713 17.5113 43.0046 17.698C43.2473 17.8753 43.574 17.964 43.9846 17.964ZM49.1589 19V8.92H50.6429V19H49.1589ZM54.8742 19.168C54.2862 19.168 53.8009 19.07 53.4182 18.874C53.0356 18.678 52.7509 18.4213 52.5642 18.104C52.3776 17.7773 52.2842 17.4227 52.2842 17.04C52.2842 16.368 52.5456 15.836 53.0682 15.444C53.5909 15.052 54.3376 14.856 55.3082 14.856H57.1282V14.73C57.1282 14.1887 56.9789 13.7827 56.6802 13.512C56.3909 13.2413 56.0129 13.106 55.5462 13.106C55.1356 13.106 54.7762 13.2087 54.4682 13.414C54.1696 13.61 53.9876 13.904 53.9222 14.296H52.4382C52.4849 13.792 52.6529 13.3627 52.9422 13.008C53.2409 12.644 53.6142 12.3687 54.0622 12.182C54.5196 11.986 55.0189 11.888 55.5602 11.888C56.5309 11.888 57.2822 12.1447 57.8142 12.658C58.3462 13.162 58.6122 13.8527 58.6122 14.73V19H57.3242L57.1982 17.81C57.0022 18.1927 56.7176 18.5147 56.3442 18.776C55.9709 19.0373 55.4809 19.168 54.8742 19.168ZM55.1682 17.964C55.5696 17.964 55.9056 17.8707 56.1762 17.684C56.4562 17.488 56.6709 17.2313 56.8202 16.914C56.9789 16.5967 57.0769 16.2467 57.1142 15.864H55.4622C54.8742 15.864 54.4542 15.9667 54.2022 16.172C53.9596 16.3773 53.8382 16.634 53.8382 16.942C53.8382 17.2593 53.9549 17.5113 54.1882 17.698C54.4309 17.8753 54.7576 17.964 55.1682 17.964ZM60.3425 19V12.056H61.6725L61.7985 13.372C62.0412 12.9147 62.3772 12.5553 62.8065 12.294C63.2452 12.0233 63.7725 11.888 64.3885 11.888V13.442H63.9825C63.5719 13.442 63.2032 13.512 62.8765 13.652C62.5592 13.7827 62.3025 14.0113 62.1065 14.338C61.9199 14.6553 61.8265 15.0987 61.8265 15.668V19H60.3425ZM66.5009 10.74C66.2209 10.74 65.9876 10.656 65.8009 10.488C65.6236 10.3107 65.5349 10.0913 65.5349 9.83C65.5349 9.56867 65.6236 9.354 65.8009 9.186C65.9876 9.00867 66.2209 8.92 66.5009 8.92C66.7809 8.92 67.0096 9.00867 67.1869 9.186C67.3736 9.354 67.4669 9.56867 67.4669 9.83C67.4669 10.0913 67.3736 10.3107 67.1869 10.488C67.0096 10.656 66.7809 10.74 66.5009 10.74ZM65.7589 19V12.056H67.2429V19H65.7589ZM72.4499 19.168C71.7872 19.168 71.1899 19.0187 70.6579 18.72C70.1352 18.412 69.7199 17.9873 69.4119 17.446C69.1039 16.8953 68.9499 16.256 68.9499 15.528C68.9499 14.8 69.1039 14.1653 69.4119 13.624C69.7292 13.0733 70.1539 12.6487 70.6859 12.35C71.2179 12.042 71.8106 11.888 72.4639 11.888C73.1266 11.888 73.7192 12.042 74.2419 12.35C74.7739 12.6487 75.1939 13.0733 75.5019 13.624C75.8192 14.1653 75.9779 14.8 75.9779 15.528C75.9779 16.256 75.8192 16.8953 75.5019 17.446C75.1939 17.9873 74.7739 18.412 74.2419 18.72C73.7099 19.0187 73.1126 19.168 72.4499 19.168ZM72.4499 17.894C72.8046 17.894 73.1312 17.8053 73.4299 17.628C73.7379 17.4507 73.9852 17.1893 74.1719 16.844C74.3586 16.4893 74.4519 16.0507 74.4519 15.528C74.4519 15.0053 74.3586 14.5713 74.1719 14.226C73.9946 13.8713 73.7519 13.6053 73.4439 13.428C73.1452 13.2507 72.8186 13.162 72.4639 13.162C72.1092 13.162 71.7779 13.2507 71.4699 13.428C71.1712 13.6053 70.9286 13.8713 70.7419 14.226C70.5552 14.5713 70.4619 15.0053 70.4619 15.528C70.4619 16.0507 70.5552 16.4893 70.7419 16.844C70.9286 17.1893 71.1712 17.4507 71.4699 17.628C71.7686 17.8053 72.0952 17.894 72.4499 17.894Z" fill="#BFBFBF"/>
<rect x="0.670166" y="0.5" width="82" height="27" rx="4.5" stroke="#BFBFBF"/>
<defs>
<clipPath id="clip0_117_368">
<rect width="18" height="18" fill="white" transform="translate(6.17017 5)"/>
</clipPath>
</defs>
</svg>
