<svg width="19" height="19" viewBox="0 0 19 19" fill="none" xmlns="http://www.w3.org/2000/svg">
<g clip-path="url(#clip0_117_345)">
<path d="M6.92017 17C7.33438 17 7.67017 16.6642 7.67017 16.25C7.67017 15.8358 7.33438 15.5 6.92017 15.5C6.50595 15.5 6.17017 15.8358 6.17017 16.25C6.17017 16.6642 6.50595 17 6.92017 17Z" stroke="#BFBFBF" stroke-width="2" stroke-linecap="round" stroke-linejoin="round"/>
<path d="M15.1702 17C15.5844 17 15.9202 16.6642 15.9202 16.25C15.9202 15.8358 15.5844 15.5 15.1702 15.5C14.756 15.5 14.4202 15.8358 14.4202 16.25C14.4202 16.6642 14.756 17 15.1702 17Z" stroke="#BFBFBF" stroke-width="2" stroke-linecap="round" stroke-linejoin="round"/>
<path d="M0.920166 1.25H3.92017L5.93017 11.2925C5.99875 11.6378 6.1866 11.948 6.46083 12.1687C6.73505 12.3895 7.07819 12.5067 7.43017 12.5H14.7202C15.0721 12.5067 15.4153 12.3895 15.6895 12.1687C15.9637 11.948 16.1516 11.6378 16.2202 11.2925L17.4202 5H4.67017" stroke="#BFBFBF" stroke-width="2" stroke-linecap="round" stroke-linejoin="round"/>
</g>
<defs>
<clipPath id="clip0_117_345">
<rect width="18" height="18" fill="white" transform="translate(0.170166 0.5)"/>
</clipPath>
</defs>
</svg>
