<svg width="20" height="22" viewBox="0 0 20 22" fill="none" xmlns="http://www.w3.org/2000/svg">
<path d="M16.9561 16.5767C16.9561 17.0032 16.6396 17.3558 16.2291 17.4115L16.1149 17.4192L2.88035 17.4191L6.02912 20.5603C6.35838 20.8886 6.35961 21.4221 6.03187 21.7518C5.73392 22.0517 5.26667 22.0799 4.9368 21.836L4.84227 21.7546L0.247568 17.1737C0.220493 17.1461 0.195909 17.118 0.173246 17.0883L0.247568 17.1737C0.206113 17.1324 0.169861 17.0878 0.138811 17.0408C0.128609 17.0244 0.118191 17.0073 0.108377 16.9899C0.0986374 16.9737 0.0900907 16.9573 0.0821228 16.9406C0.0748531 16.9242 0.0675191 16.9075 0.0607185 16.8905C0.0515181 16.869 0.0437267 16.8468 0.0368843 16.8245C0.0333699 16.8113 0.029594 16.7979 0.0261497 16.7842C0.0194978 16.76 0.0144777 16.7356 0.01054 16.7111C0.00923596 16.6996 0.00756718 16.6876 0.00615501 16.6754C0.00235827 16.6478 0.000499874 16.6203 -2.67029e-05 16.5929C0.000490453 16.5874 0.00043869 16.5821 0.00043869 16.5767L-2.67029e-05 16.5603C0.000499874 16.5328 0.00235828 16.5054 0.00554848 16.4781L0.00043869 16.5767C0.00043869 16.5308 0.00410264 16.4858 0.0111542 16.4419C0.014476 16.4176 0.0194993 16.3932 0.0256062 16.369C0.0294202 16.3562 0.0329865 16.3434 0.0368443 16.3308C0.0435652 16.3066 0.0520434 16.2826 0.0616379 16.259C0.0675868 16.246 0.0730306 16.2335 0.078764 16.2212C0.0870465 16.2018 0.0970016 16.1823 0.107761 16.1632C0.118246 16.146 0.128635 16.129 0.139595 16.1124C0.147366 16.0994 0.156319 16.0866 0.165667 16.0741L0.173246 16.0651C0.195909 16.0354 0.220495 16.0073 0.246817 15.9809L0.247568 15.9794L4.84227 11.3986C5.17153 11.0703 5.70413 11.0715 6.03187 11.4013C6.32982 11.7011 6.35588 12.1692 6.11078 12.4985L6.02912 12.5928L2.87811 15.734L16.1149 15.7342C16.5795 15.7342 16.9561 16.1114 16.9561 16.5767ZM19.9995 5.4233L20 5.43971C19.9995 5.46716 19.9976 5.4946 19.9944 5.52191L19.9995 5.4233C19.9995 5.4692 19.9959 5.51424 19.9888 5.55815C19.9855 5.58216 19.9806 5.60627 19.9746 5.63016C19.9705 5.64421 19.9664 5.65853 19.9621 5.67269C19.9558 5.69482 19.9483 5.71623 19.9398 5.73736C19.933 5.75265 19.9263 5.76812 19.9191 5.78334C19.9113 5.80143 19.9021 5.81925 19.8922 5.83679C19.883 5.8518 19.874 5.86667 19.8646 5.88123C19.8557 5.89621 19.8453 5.91121 19.8343 5.92593L19.7524 6.02056L15.1577 10.6014C14.8284 10.9297 14.2958 10.9285 13.9681 10.5987C13.6702 10.2989 13.6441 9.83075 13.8892 9.50148L13.9709 9.40718L17.1232 6.26508L3.88506 6.26583C3.42049 6.26583 3.04388 5.88862 3.04388 5.4233C3.04388 4.99676 3.36034 4.64424 3.77092 4.58846L3.88506 4.58076L17.1221 4.58001L13.9709 1.43967C13.6715 1.14124 13.6433 0.673237 13.8869 0.342836L13.9681 0.248151C14.266 -0.0516578 14.7333 -0.0799319 15.0632 0.164038L15.1577 0.245397L19.7524 4.82629L19.7978 4.8759C19.8078 4.88755 19.8174 4.89947 19.8267 4.91166L19.7524 4.82629C19.7939 4.86762 19.8301 4.9122 19.8612 4.95921C19.8714 4.97561 19.8818 4.99266 19.8916 5.01009C19.9013 5.02628 19.9099 5.04273 19.9178 5.0594C19.9251 5.07585 19.9325 5.09254 19.9393 5.1095C19.9485 5.13105 19.9562 5.15315 19.9631 5.17548C19.9667 5.18907 19.9706 5.20299 19.9741 5.21704C19.9804 5.23968 19.9851 5.26256 19.9889 5.28556C19.9906 5.2994 19.9925 5.31296 19.9941 5.32662C19.9976 5.35263 19.9994 5.37931 20 5.40601C19.9995 5.41191 19.9995 5.4176 19.9995 5.4233Z" fill="#9B9B9B"/>
</svg>
